<svg width="26" height="26" viewBox="0 0 26 26" fill="none" xmlns="http://www.w3.org/2000/svg">
<path d="M13 1.625C6.71836 1.625 1.625 6.71836 1.625 13C1.625 19.2816 6.71836 24.375 13 24.375C19.2816 24.375 24.375 19.2816 24.375 13C24.375 6.71836 19.2816 1.625 13 1.625ZM16.9279 13.165L10.6818 17.6846C10.5473 17.7811 10.3594 17.6846 10.3594 17.5195V16.3287C10.3594 16.0697 10.4838 15.8234 10.6945 15.6711L14.3863 13L10.6945 10.3289C10.4838 10.1766 10.3594 9.93281 10.3594 9.67129V8.48047C10.3594 8.31543 10.5473 8.21895 10.6818 8.31543L16.9279 12.835C17.0396 12.9162 17.0396 13.0838 16.9279 13.165Z" fill="black"/>
</svg>
