<svg width="74" height="76" viewBox="0 0 74 76" fill="none" xmlns="http://www.w3.org/2000/svg">
<g filter="url(#filter0_dd_1_112)">
<rect x="15" y="17" width="40" height="40" rx="10" fill="white"/>
</g>
<path d="M39.9688 30.1164V28.3047C39.9688 28.1477 39.7883 28.061 39.6664 28.157L29.1008 36.4094C29.011 36.4792 28.9384 36.5686 28.8884 36.6707C28.8384 36.7729 28.8125 36.8851 28.8125 36.9988C28.8125 37.1126 28.8384 37.2248 28.8884 37.3269C28.9384 37.4291 29.011 37.5185 29.1008 37.5883L39.6664 45.8406C39.7906 45.9367 39.9688 45.85 39.9688 45.693V43.8813C39.9688 43.7664 39.9148 43.6563 39.8258 43.586L31.3883 37L39.8258 30.4117C39.9148 30.3414 39.9688 30.2313 39.9688 30.1164Z" fill="black"/>
<defs>
<filter id="filter0_dd_1_112" x="-4" y="0" width="78" height="76" filterUnits="userSpaceOnUse" color-interpolation-filters="sRGB">
<feFlood flood-opacity="0" result="BackgroundImageFix"/>
<feColorMatrix in="SourceAlpha" type="matrix" values="0 0 0 0 0 0 0 0 0 0 0 0 0 0 0 0 0 0 127 0" result="hardAlpha"/>
<feOffset dx="4" dy="4"/>
<feGaussianBlur stdDeviation="7.5"/>
<feColorMatrix type="matrix" values="0 0 0 0 0 0 0 0 0 0 0 0 0 0 0 0 0 0 0.15 0"/>
<feBlend mode="normal" in2="BackgroundImageFix" result="effect1_dropShadow_1_112"/>
<feColorMatrix in="SourceAlpha" type="matrix" values="0 0 0 0 0 0 0 0 0 0 0 0 0 0 0 0 0 0 127 0" result="hardAlpha"/>
<feOffset dx="-4" dy="-2"/>
<feGaussianBlur stdDeviation="7.5"/>
<feColorMatrix type="matrix" values="0 0 0 0 0 0 0 0 0 0 0 0 0 0 0 0 0 0 0.15 0"/>
<feBlend mode="normal" in2="effect1_dropShadow_1_112" result="effect2_dropShadow_1_112"/>
<feBlend mode="normal" in="SourceGraphic" in2="effect2_dropShadow_1_112" result="shape"/>
</filter>
</defs>
</svg>
