<?xml version="1.0" encoding="utf-8"?>
<!-- Generator: Adobe Illustrator 27.8.1, SVG Export Plug-In . SVG Version: 6.00 Build 0)  -->
<svg version="1.1" id="Layer_1" xmlns="http://www.w3.org/2000/svg" xmlns:xlink="http://www.w3.org/1999/xlink" x="0px" y="0px"
	 viewBox="0 0 20 12.7" style="enable-background:new 0 0 20 12.7;" xml:space="preserve">
<style type="text/css">
	.st0{fill:#667C8A;}
</style>
<path class="st0" d="M15,6.4c0-0.7,0.3-1.3,0.7-1.8c0.5-0.5,1.1-0.7,1.8-0.7s1.3,0.3,1.8,0.7C19.7,5.1,20,5.7,20,6.4
	s-0.3,1.3-0.7,1.8c-0.5,0.5-1.1,0.7-1.8,0.7s-1.3-0.3-1.8-0.7C15.3,7.7,15,7.1,15,6.4z M7.5,6.4c0-0.7,0.3-1.3,0.7-1.8
	C8.7,4.2,9.3,3.9,10,3.9s1.3,0.3,1.8,0.7c0.5,0.5,0.7,1.1,0.7,1.8s-0.3,1.3-0.7,1.8c-0.5,0.5-1.1,0.7-1.8,0.7S8.7,8.6,8.2,8.2
	C7.8,7.7,7.5,7.1,7.5,6.4z M0,6.4c0-0.7,0.3-1.3,0.7-1.8c0.5-0.5,1.1-0.7,1.8-0.7s1.3,0.3,1.8,0.7C4.7,5.1,5,5.7,5,6.4
	S4.7,7.7,4.3,8.2C3.8,8.7,3.2,8.9,2.5,8.9S1.2,8.6,0.7,8.2C0.3,7.7,0,7.1,0,6.4z"/>
</svg>
